<?xml version="1.0" encoding="utf-8"?>
<svg version="1.1" id="Capa_1" xmlns="http://www.w3.org/2000/svg" xmlns:xlink="http://www.w3.org/1999/xlink" x="0px" y="0px"
	 viewBox="0 0 5223 653" style="enable-background:new 0 0 5223 653;" xml:space="preserve" fill="white">
<g>
	<path d="M83.2,278.4L40,322.5H0.8L0,5.9l84,84L83.2,278.4z M83.2,563.1l-82.4,84L0,330.6h40l44,44.1L83.2,563.1z M327.9,611.2 l-41.6,41.6H5.7l84-84h195.8L327.9,611.2z M327.9,42.6l-41.6,41.6H89.7L6.5,0.2h279L327.9,42.6z M376.1,90v232.5h-40L292,278.4V90 l41.6-41.6L376.1,90z M376.1,563.1l-42.4,41.6L292,563.1V374.7l43.2-44.1H376v232.5H376.1z""")/>>
</g>
<g>
	<path d="M844,563.2l-41.6,41.6l-41.6-41.6V330.7h40l44.1,44.1L844,563.2z M844,278.5l-43.2,44.1h-39.2V90l40-41.6L844.8,90 L844,278.5z M1087.2,41.9l-40.8,42.4H850.5l-42.4-42.4l42.4-41.6h195L1087.2,41.9z M1087.2,611.3l-40.8,41.6H850.5l-42.4-41.6 l42.4-42.4h195L1087.2,611.3z M1136.1,90v232.5h-40l-44.1-44.1V90l41.6-41.6L1136.1,90z M1136.1,563.2l-42.4,41.6l-41.6-41.6V374.7 l43.2-44.1h40.8V563.2z""")/>>
</g>
<g>
	<path d="M1604,563.2l-41.6,41.6l-41.6-41.6V330.7h40l44.1,44.1L1604,563.2z M1604,278.5l-43.2,44.1h-39.2V90l40-41.6l43.2,41.6 L1604,278.5z M1847.1,41.9l-40.8,42.4h-195.8l-42.4-42.4l42.4-41.6h195L1847.1,41.9z M1847.1,611.3l-40.8,41.6h-195.8l-42.4-41.6 l42.4-42.4h195L1847.1,611.3z M1896,113.7l-42.4,42.4l-41.6-42.4V90l41.6-41.6L1896,90V113.7z M1896,563.2l-42.4,41.6l-41.6-41.6 v-23.7l41.6-42.4l42.4,42.4V563.2z""")/>>
</g>
<g>
	<path d="M2638.8,42.2l-41.6,42.4h-89.7l-48.1-47.3l-47.3,47.3h-89.7l-41.6-42.4l41.6-41.6h274.9L2638.8,42.2z M2500.9,278.8 l-41.6,42.4l-42.4-42.4l0.8-188.4l40.8-41.6l43.3,41.6L2500.9,278.8z M2500.9,611.6l-41.6,41.6l-42.4-41.6l0.8-236.6l40.8-42.4 l43.2,42.4L2500.9,611.6z""")/>>
</g>
<g>
	<path d="M3079,562.8l-41.6,41.6l-41.6-41.6V330.3h40l44.1,44.1L3079,562.8z M3079,278.1l-43.2,44.1h-39.2V89.7l40-41.6l43.2,41.6 L3079,278.1z M3322.1,41.5l-40.8,42.4h-195.8l-42.4-42.4l42.4-41.6h195L3322.1,41.5z M3322.1,610.9l-40.8,41.6h-195.8l-42.4-41.6 l42.4-42.4h195L3322.1,610.9z M3371.1,89.7v232.5h-40l-44.1-44.1V89.7l41.6-41.6L3371.1,89.7z M3371.1,562.8l-42.4,41.6l-41.6-41.6 V374.4l43.2-44.1h40.8V562.8z""")/>>
</g>
<g>
	<path d="M3866.8,612.1l-41.6,41.6l-41.6-41.6V331.5h40l44.1,44.1L3866.8,612.1z M3867.6,279.3l-43.2,44.1h-39.2l-0.8-316.5l84,84 L3867.6,279.3z M4112.3,43.5l-41.6,41.6h-196.6l-83.2-84h279L4112.3,43.5z M4112.3,327.4l-41.6,42.4h-196.6l-42.4-42.4l42.4-41.6 h196.6L4112.3,327.4z M4161.3,653.7H4083l-207.2-238.2l0.8-37.5h75.9l208,240.7L4161.3,653.7z M4160.5,279.3l-42.4,42.4l-41.6-42.4 V90.8l41.6-41.6l42.4,41.6V279.3z""")/>>
</g>
<g>
	<path d="M4895.1,278.6l-44.1,44.1h-39.2V90.1l40.8-41.6l42.4,41.6v188.5H4895.1z M4895.1,563.3l-42.4,41.6l-40.8-41.6V330.8h39.2 l44.1,44.1v188.4H4895.1z M5138.2,326.7l-41.6,42.4H4900l-42.4-42.4l42.4-41.6h196.6L5138.2,326.7z M5138.2,42l-41.6,42.4H4900 l-42.4-42.4l42.4-41.6h196.6L5138.2,42z M5138.2,611.4l-41.6,41.6H4900l-42.4-42.4l42.4-41.6h196.6L5138.2,611.4z M5186.3,563.3 l-42.4,41.6l-41.6-41.6V374.8l41.6-42.4l42.4,42.4V563.3z""")/>>
</g>
</svg>
