<?xml version="1.0" encoding="UTF-8" standalone="no"?><!DOCTYPE svg PUBLIC "-//W3C//DTD SVG 1.1//EN" "http://www.w3.org/Graphics/SVG/1.1/DTD/svg11.dtd"><svg width="100%" height="100%" viewBox="0 0 5223 653" version="1.1" xmlns="http://www.w3.org/2000/svg" xmlns:xlink="http://www.w3.org/1999/xlink" xml:space="preserve" xmlns:serif="http://www.serif.com/" style="fill-rule:evenodd;clip-rule:evenodd;stroke-linejoin:round;stroke-miterlimit:2;"><g><path d="M579.472,296.553l-217.89,0c-3.259,0 -6.401,1.359 -8.735,3.779l-20.421,21.237c-2.393,2.498 -3.758,5.934 -3.758,9.51c0,3.576 1.365,6.996 3.758,9.494l20.421,21.237c2.334,2.42 5.476,3.779 8.735,3.779l217.89,0c3.259,0 6.386,-1.359 8.72,-3.779l20.421,-21.237c2.408,-2.498 3.773,-5.918 3.773,-9.494c0,-3.576 -1.365,-7.011 -3.773,-9.51l-20.421,-21.237c-2.334,-2.42 -5.461,-3.779 -8.72,-3.779Zm-527.122,3.779l-20.421,21.237c-2.408,2.498 -3.758,5.934 -3.758,9.51c0,3.576 1.351,6.996 3.758,9.494l20.421,21.237c2.334,2.42 5.476,3.779 8.735,3.779l217.875,0c3.274,0 6.401,-1.359 8.735,-3.779l20.421,-21.237c2.408,-2.498 3.758,-5.918 3.758,-9.494c0,-3.576 -1.351,-7.011 -3.758,-9.51l-20.421,-21.237c-2.334,-2.42 -5.461,-3.779 -8.735,-3.779l-217.875,0c-3.259,0 -6.401,1.359 -8.735,3.779Zm600.54,348.626l0,-273.891c0,-3.482 -1.277,-6.824 -3.567,-9.307l-19.951,-21.721c-2.349,-2.561 -5.579,-3.997 -8.94,-3.997c-3.362,0 -6.577,1.437 -8.94,3.997l-19.951,21.721c-2.29,2.483 -3.567,5.824 -3.553,9.307l0,233.057c0,3.607 1.38,7.074 3.832,9.572l39.917,40.834c3.597,3.701 8.94,4.731 13.55,2.655c4.61,-2.092 7.605,-6.902 7.605,-12.227Zm-665.223,0c0,5.325 2.98,10.134 7.59,12.227c4.61,2.077 9.953,1.046 13.565,-2.655l39.917,-40.834c2.437,-2.498 3.832,-5.965 3.832,-9.572l0,-233.057c0,-3.482 -1.277,-6.824 -3.567,-9.307l-19.951,-21.721c-2.349,-2.561 -5.579,-3.997 -8.94,-3.997c-3.362,0 -6.577,1.437 -8.94,3.997l-19.951,21.721c-2.29,2.483 -3.567,5.824 -3.567,9.307l0,273.891l0.015,0Zm0,-635.665l0,273.876c0,3.482 1.277,6.808 3.553,9.291l19.951,21.721c2.364,2.561 5.579,3.997 8.94,3.997c3.362,0 6.592,-1.437 8.94,-3.997l19.951,-21.721c2.29,-2.483 3.567,-5.809 3.567,-9.291l0,-233.042c0,-3.623 -1.38,-7.074 -3.832,-9.588l-39.917,-40.834c-3.611,-3.685 -8.955,-4.731 -13.565,-2.639c-4.61,2.077 -7.59,6.902 -7.59,12.227Zm381.637,279.075l28.554,-0.344c3.259,-0.047 6.386,-1.437 8.691,-3.904l174.45,-185.556c2.305,-2.452 3.626,-5.778 3.655,-9.244l0.338,-30.372c0.029,-3.576 -1.292,-7.027 -3.67,-9.557c-2.378,-2.53 -5.608,-3.919 -8.97,-3.888l-28.554,0.344c-3.274,0.047 -6.386,1.437 -8.691,3.904l-174.464,185.556c-2.305,2.452 -3.611,5.778 -3.655,9.244l-0.323,30.372c-0.044,3.576 1.277,7.027 3.655,9.557c2.378,2.514 5.623,3.919 8.985,3.888Z" style="fill:#fff;fill-rule:nonzero;"/><path d="M1501.662,301.343c2.299,-2.446 3.577,-5.767 3.548,-9.224l-0.326,-29.364c-0.028,-3.367 -1.306,-6.567 -3.534,-8.938l-168.664,-179.417c-2.243,-2.37 -5.252,-3.714 -8.403,-3.759l-27.607,-0.332c-3.25,-0.045 -6.387,1.313 -8.687,3.759c-2.299,2.446 -3.577,5.782 -3.534,9.24l0.312,29.364c0.043,3.352 1.306,6.567 3.534,8.938l168.678,179.402c2.228,2.37 5.237,3.729 8.403,3.759l27.607,0.347c3.25,0.03 6.373,-1.329 8.672,-3.774Zm-1.788,7.337l-210.663,0c-3.151,0 -6.188,1.313 -8.431,3.654l-19.743,20.532c-2.328,2.416 -3.648,5.722 -3.648,9.179c0,3.472 1.32,6.779 3.648,9.194l19.743,20.532c2.257,2.34 5.28,3.654 8.431,3.654l210.663,0c3.151,0 6.188,-1.313 8.445,-3.654l19.743,-20.532c2.328,-2.416 3.634,-5.722 3.634,-9.194c0,-3.457 -1.306,-6.764 -3.634,-9.179l-19.743,-20.532c-2.257,-2.34 -5.294,-3.654 -8.445,-3.654Zm-509.64,3.654l-19.743,20.532c-2.328,2.416 -3.634,5.737 -3.634,9.194c0,3.457 1.306,6.764 3.634,9.179l19.743,20.532c2.257,2.34 5.294,3.654 8.445,3.654l210.649,0c3.165,0 6.188,-1.313 8.445,-3.654l19.743,-20.532c2.328,-2.416 3.634,-5.722 3.634,-9.179c0,-3.457 -1.306,-6.779 -3.634,-9.194l-19.743,-20.532c-2.257,-2.34 -5.28,-3.654 -8.445,-3.654l-210.649,0c-3.151,0 -6.188,1.313 -8.445,3.654Zm580.623,337.064l0,-264.808c0,-3.367 -1.235,-6.598 -3.449,-8.998l-19.289,-21c-2.271,-2.476 -5.394,-3.865 -8.644,-3.865c-3.25,0 -6.359,1.389 -8.644,3.865l-19.289,21c-2.214,2.4 -3.449,5.631 -3.435,8.998l0,225.328c0,3.487 1.334,6.839 3.705,9.255l38.593,39.48c3.477,3.578 8.644,4.574 13.101,2.567c4.457,-2.023 7.352,-6.673 7.352,-11.821Zm-643.161,0c0,5.148 2.881,9.798 7.338,11.821c4.457,2.008 9.623,1.012 13.115,-2.567l38.593,-39.48c2.356,-2.416 3.705,-5.767 3.705,-9.255l0,-225.328c0,-3.367 -1.235,-6.598 -3.449,-8.998l-19.289,-21c-2.271,-2.476 -5.394,-3.865 -8.644,-3.865c-3.25,0 -6.359,1.389 -8.644,3.865l-19.289,21c-2.214,2.4 -3.449,5.631 -3.449,8.998l0,264.808l0.014,0Zm69.578,-582.652l212.097,0c3.151,0 6.188,-1.313 8.445,-3.669l19.743,-20.517c2.328,-2.416 3.634,-5.737 3.634,-9.194c0,-3.457 -1.306,-6.764 -3.634,-9.179l-19.743,-20.532c-2.257,-2.34 -5.294,-3.669 -8.445,-3.654l-251.996,0c-4.925,0 -9.354,3.17 -11.199,8.032c-1.845,4.846 -0.738,10.402 2.796,14.056l39.899,41.035c2.257,2.325 5.266,3.623 8.403,3.623Zm-69.578,-31.931l0,264.793c0,3.367 1.235,6.582 3.435,8.983l19.289,21c2.285,2.476 5.394,3.865 8.644,3.865c3.25,0 6.373,-1.389 8.644,-3.865l19.289,-21c2.214,-2.4 3.449,-5.616 3.449,-8.983l0,-225.313c0,-3.503 -1.334,-6.839 -3.705,-9.27l-38.593,-39.48c-3.492,-3.563 -8.658,-4.574 -13.115,-2.551c-4.457,2.008 -7.338,6.673 -7.338,11.821Z" style="fill:#fff;fill-rule:nonzero;"/><path d="M2400.195,286.714l-210.642,0c-3.165,0 -6.202,1.313 -8.459,3.669l-19.743,20.517c-2.314,2.416 -3.633,5.737 -3.633,9.194c0,3.457 1.32,6.764 3.633,9.179l19.743,20.532c2.257,2.34 5.294,3.654 8.459,3.654l210.642,0c3.151,0 6.188,-1.313 8.445,-3.654l19.743,-20.532c2.328,-2.416 3.633,-5.722 3.633,-9.179c0,-3.457 -1.306,-6.779 -3.633,-9.194l-19.743,-20.517c-2.257,-2.355 -5.294,-3.669 -8.445,-3.669Zm1.405,308.768l-212.09,0c-3.165,0 -6.202,1.313 -8.459,3.669l-19.743,20.517c-2.314,2.431 -3.633,5.737 -3.633,9.194c0,3.457 1.32,6.779 3.633,9.194l19.743,20.517c2.257,2.355 5.294,3.669 8.459,3.669l251.987,0c4.911,0 9.353,-3.186 11.198,-8.032c1.845,-4.861 0.738,-10.417 -2.81,-14.055l-39.897,-41.049c-2.243,-2.325 -5.252,-3.623 -8.388,-3.623Zm69.575,31.946l0,-264.805c0,-3.367 -1.235,-6.582 -3.435,-8.983l-19.303,-21c-2.271,-2.476 -5.379,-3.88 -8.63,-3.88c-3.264,0 -6.373,1.404 -8.644,3.88l-19.303,21c-2.2,2.4 -3.435,5.616 -3.435,8.983l0,225.326c0,3.487 1.334,6.839 3.704,9.255l38.591,39.479c3.492,3.578 8.644,4.59 13.1,2.567c4.457,-2.023 7.352,-6.673 7.352,-11.821Zm-581.952,-28.322l-39.897,41.049c-3.534,3.638 -4.641,9.209 -2.796,14.055c1.845,4.861 6.273,8.032 11.198,8.032l251.987,0c3.151,0 6.188,-1.313 8.445,-3.654l19.743,-20.532c2.328,-2.416 3.633,-5.722 3.633,-9.194c0,-3.457 -1.306,-6.764 -3.633,-9.179l-19.743,-20.532c-2.257,-2.34 -5.294,-3.654 -8.445,-3.654l-212.104,0c-3.123,0 -6.131,1.283 -8.388,3.608Zm581.952,-586.254c0,-5.163 -2.895,-9.813 -7.352,-11.821c-4.457,-2.023 -9.609,-1.012 -13.1,2.551l-38.591,39.479c-2.37,2.431 -3.704,5.767 -3.704,9.27l0,225.326c0,3.352 1.235,6.582 3.449,8.983l19.289,21c2.271,2.476 5.393,3.865 8.644,3.865c3.25,0 6.359,-1.389 8.63,-3.865l19.303,-21c2.2,-2.4 3.449,-5.631 3.435,-8.983l0,-264.805Zm-356.748,256.818l-0.312,-29.364c-0.043,-3.352 -1.306,-6.567 -3.534,-8.938l-168.673,-179.4c-2.228,-2.37 -5.252,-3.729 -8.402,-3.759l-27.606,-0.347c-3.25,-0.03 -6.373,1.329 -8.672,3.774c-2.299,2.446 -3.577,5.767 -3.548,9.224l0.326,29.364c0.028,3.367 1.306,6.567 3.534,8.938l168.659,179.415c2.243,2.37 5.252,3.714 8.402,3.759l27.606,0.332c3.25,0.045 6.387,-1.313 8.686,-3.759c2.299,-2.446 3.577,-5.782 3.534,-9.239Zm14.207,392.467l41.941,0c1.746,0 3.307,-1.117 3.974,-2.823c0.667,-1.706 0.298,-3.684 -0.937,-4.982l-20.963,-22.253c-1.689,-1.781 -4.4,-1.781 -6.075,0l-20.978,22.253c-1.235,1.298 -1.604,3.276 -0.937,4.982c0.667,1.706 2.243,2.823 3.974,2.823Z" style="fill:#fff;fill-rule:nonzero;"/><path d="M3411.181,648.957l0,-273.888c0,-3.482 -1.277,-6.824 -3.567,-9.307l-19.95,-21.721c-2.349,-2.561 -5.578,-3.997 -8.94,-3.997c-3.362,0 -6.577,1.437 -8.926,3.997l-19.965,21.721c-2.275,2.483 -3.553,5.824 -3.553,9.307l0,233.055c0,3.607 1.38,7.074 3.832,9.572l39.915,40.833c3.611,3.701 8.94,4.731 13.55,2.655c4.61,-2.092 7.604,-6.902 7.604,-12.227Zm-665.2,0c0,5.325 2.98,10.134 7.59,12.227c4.61,2.077 9.953,1.046 13.564,-2.655l39.915,-40.833c2.437,-2.498 3.832,-5.965 3.832,-9.572l0,-233.055c0,-3.482 -1.277,-6.824 -3.567,-9.307l-19.95,-21.721c-2.349,-2.561 -5.578,-3.997 -8.94,-3.997c-3.362,0 -6.577,1.437 -8.94,3.997l-19.95,21.721c-2.29,2.483 -3.567,5.824 -3.567,9.307l0,273.888l0.015,0Zm665.2,-635.673c0,-5.325 -2.995,-10.134 -7.604,-12.227c-4.61,-2.077 -9.938,-1.046 -13.55,2.655l-39.915,40.833c-2.452,2.498 -3.832,5.965 -3.832,9.572l0,233.055c0,3.482 1.277,6.808 3.553,9.291l19.965,21.721c2.349,2.561 5.564,3.997 8.926,3.997c3.362,0 6.591,-1.437 8.94,-3.997l19.95,-21.721c2.29,-2.483 3.567,-5.809 3.567,-9.291l0,-273.888Zm-665.2,0.016l0,273.872c0,3.482 1.277,6.808 3.553,9.291l19.95,21.721c2.363,2.561 5.578,3.997 8.94,3.997c3.362,0 6.591,-1.437 8.94,-3.997l19.95,-21.721c2.29,-2.483 3.567,-5.809 3.567,-9.291l0,-233.039c0,-3.623 -1.38,-7.074 -3.832,-9.588l-39.915,-40.833c-3.611,-3.685 -8.955,-4.731 -13.564,-2.639c-4.61,2.077 -7.59,6.902 -7.59,12.227Zm296.215,265.628l-0.338,-30.371c-0.029,-3.482 -1.351,-6.793 -3.655,-9.244l-174.444,-185.554c-2.319,-2.467 -5.432,-3.857 -8.691,-3.904l-28.553,-0.344c-3.362,-0.031 -6.606,1.359 -8.984,3.888c-2.378,2.53 -3.699,5.981 -3.655,9.556l0.323,30.371c0.044,3.467 1.351,6.793 3.655,9.244l174.458,185.554c2.305,2.452 5.432,3.857 8.691,3.888l28.553,0.359c3.362,0.031 6.591,-1.374 8.97,-3.904c2.378,-2.53 3.699,-5.965 3.67,-9.541Zm296.538,17.629l-217.882,0c-3.259,0 -6.401,1.359 -8.735,3.779l-20.405,21.236c-2.408,2.498 -3.773,5.934 -3.773,9.51c0,3.576 1.365,6.996 3.773,9.494l20.405,21.236c2.349,2.42 5.476,3.779 8.735,3.779l217.882,0c3.259,0 6.401,-1.359 8.735,-3.779l20.405,-21.236c2.408,-2.498 3.773,-5.918 3.773,-9.494c0,-3.576 -1.365,-7.011 -3.773,-9.51l-20.42,-21.236c-2.334,-2.42 -5.461,-3.779 -8.72,-3.779Z" style="fill:#fff;fill-rule:nonzero;"/><path d="M4232.011,294.599l-201.031,0c-3.007,0 -5.906,1.254 -8.06,3.487l-18.842,19.596c-2.208,2.305 -3.468,5.475 -3.468,8.775c0,3.3 1.26,6.455 3.468,8.76l18.842,19.596c2.154,2.233 5.053,3.487 8.06,3.487l201.031,0c3.021,0 5.919,-1.254 8.073,-3.487l18.842,-19.596c2.221,-2.305 3.468,-5.461 3.468,-8.76c0,-3.3 -1.246,-6.469 -3.468,-8.775l-18.842,-19.596c-2.154,-2.233 -5.053,-3.487 -8.073,-3.487Zm-486.356,3.487l-18.842,19.596c-2.208,2.305 -3.468,5.475 -3.468,8.775c0,3.3 1.26,6.455 3.468,8.76l18.842,19.596c2.154,2.233 5.053,3.487 8.073,3.487l201.031,0c3.007,0 5.906,-1.254 8.06,-3.487l18.842,-19.596c2.221,-2.305 3.468,-5.461 3.468,-8.76c0,-3.3 -1.246,-6.469 -3.468,-8.775l-18.842,-19.596c-2.154,-2.233 -5.053,-3.487 -8.06,-3.487l-201.031,0c-3.021,0 -5.919,1.254 -8.073,3.487Zm487.711,291.199l-202.413,0c-3.021,0 -5.919,1.254 -8.073,3.501l-18.842,19.581c-2.208,2.305 -3.468,5.475 -3.468,8.775c0,3.3 1.26,6.469 3.468,8.775l18.842,19.581c2.154,2.248 5.053,3.501 8.073,3.501l240.476,0c4.7,0 8.94,-3.04 10.701,-7.665c1.761,-4.64 0.704,-9.942 -2.682,-13.414l-38.077,-39.177c-2.14,-2.219 -5.012,-3.458 -8.005,-3.458Zm8.005,-529.028l38.077,-39.177c3.386,-3.472 4.443,-8.789 2.682,-13.414c-1.774,-4.64 -6.001,-7.665 -10.701,-7.665l-240.476,0c-3.021,0 -5.919,1.254 -8.073,3.487l-18.842,19.596c-2.208,2.305 -3.468,5.461 -3.468,8.76c0,3.314 1.26,6.469 3.468,8.775l18.842,19.596c2.154,2.233 5.053,3.487 8.073,3.487l202.413,0c2.994,0 5.865,-1.239 8.005,-3.458l0,0.014Zm-488.998,3.444l202.426,0c3.007,0 5.906,-1.254 8.06,-3.487l18.842,-19.596c2.221,-2.305 3.468,-5.461 3.468,-8.775c0,-3.3 -1.246,-6.455 -3.468,-8.76l-18.842,-19.596c-2.154,-2.233 -5.053,-3.487 -8.06,-3.487l-240.489,0c-4.7,0 -8.927,3.026 -10.688,7.665c-1.761,4.625 -0.704,9.942 2.668,13.414l38.077,39.177c2.14,2.205 5.025,3.444 8.005,3.444Zm-66.401,3.4l0,218.839c0,3.213 1.178,6.282 3.292,8.573l18.409,20.042c2.181,2.363 5.147,3.689 8.249,3.689c3.102,0 6.082,-1.326 8.249,-3.689l18.409,-20.042c2.113,-2.291 3.292,-5.36 3.292,-8.573l0,-215.035c0,-3.343 -1.287,-6.527 -3.535,-8.847l-36.831,-37.679c-3.332,-3.4 -8.263,-4.366 -12.516,-2.435c-4.253,1.916 -7.003,6.369 -7.003,11.282l-0.014,33.875Zm273.608,507.617l-0.312,-28.025c-0.027,-3.199 -1.246,-6.253 -3.373,-8.53l-160.963,-171.218c-2.127,-2.262 -5.012,-3.559 -8.019,-3.588l-26.346,-0.317c-3.102,-0.043 -6.096,1.254 -8.29,3.588c-2.194,2.334 -3.414,5.504 -3.373,8.804l0.298,28.025c0.041,3.213 1.246,6.268 3.373,8.53l160.976,171.232c2.127,2.262 4.998,3.545 8.019,3.588l26.346,0.317c3.102,0.043 6.082,-1.254 8.276,-3.588c2.194,-2.334 3.414,-5.519 3.373,-8.818l0.014,0Z" style="fill:#fff;fill-rule:nonzero;"/><path d="M5149.582,291.932l-217.89,0c-3.259,0 -6.401,1.359 -8.735,3.779l-20.421,21.237c-2.393,2.498 -3.758,5.934 -3.758,9.51c0,3.576 1.365,6.996 3.758,9.494l20.421,21.237c2.334,2.42 5.476,3.779 8.735,3.779l217.89,0c3.259,0 6.386,-1.359 8.72,-3.779l20.421,-21.237c2.408,-2.498 3.773,-5.918 3.773,-9.494c0,-3.576 -1.365,-7.011 -3.773,-9.51l-20.421,-21.237c-2.334,-2.42 -5.461,-3.779 -8.72,-3.779Zm-527.122,3.779l-20.421,21.237c-2.408,2.498 -3.758,5.934 -3.758,9.51c0,3.576 1.351,6.996 3.758,9.494l20.421,21.237c2.334,2.42 5.476,3.779 8.735,3.779l217.875,0c3.274,0 6.401,-1.359 8.735,-3.779l20.421,-21.237c2.408,-2.498 3.758,-5.918 3.758,-9.494c0,-3.576 -1.351,-7.011 -3.758,-9.51l-20.421,-21.237c-2.334,-2.42 -5.461,-3.779 -8.735,-3.779l-217.875,0c-3.259,0 -6.401,1.359 -8.735,3.779Zm600.54,348.626l0,-273.891c0,-3.482 -1.277,-6.824 -3.567,-9.307l-19.951,-21.721c-2.349,-2.561 -5.579,-3.997 -8.94,-3.997c-3.362,0 -6.577,1.437 -8.94,3.997l-19.951,21.721c-2.29,2.483 -3.567,5.824 -3.553,9.307l0,233.057c0,3.607 1.38,7.074 3.832,9.572l39.917,40.834c3.597,3.701 8.94,4.731 13.55,2.655c4.61,-2.092 7.605,-6.902 7.605,-12.227Zm-665.223,0c0,5.325 2.98,10.134 7.59,12.227c4.61,2.077 9.953,1.046 13.565,-2.655l39.917,-40.834c2.437,-2.498 3.832,-5.965 3.832,-9.572l0,-233.057c0,-3.482 -1.277,-6.824 -3.567,-9.307l-19.951,-21.721c-2.349,-2.561 -5.579,-3.997 -8.94,-3.997c-3.362,0 -6.577,1.437 -8.94,3.997l-19.951,21.721c-2.29,2.483 -3.567,5.824 -3.567,9.307l0,273.891l0.015,0Zm0,-635.665l0,273.876c0,3.482 1.277,6.808 3.553,9.291l19.951,21.721c2.364,2.561 5.579,3.997 8.94,3.997c3.362,0 6.592,-1.437 8.94,-3.997l19.951,-21.721c2.29,-2.483 3.567,-5.809 3.567,-9.291l0,-233.042c0,-3.623 -1.38,-7.074 -3.832,-9.588l-39.917,-40.834c-3.611,-3.685 -8.955,-4.731 -13.565,-2.639c-4.61,2.077 -7.59,6.902 -7.59,12.227Zm381.637,279.075l28.554,-0.344c3.259,-0.047 6.386,-1.437 8.691,-3.904l174.45,-185.556c2.305,-2.452 3.626,-5.778 3.655,-9.244l0.338,-30.372c0.029,-3.576 -1.292,-7.027 -3.67,-9.557c-2.378,-2.53 -5.608,-3.919 -8.97,-3.888l-28.554,0.344c-3.274,0.047 -6.386,1.437 -8.691,3.904l-174.464,185.556c-2.305,2.452 -3.611,5.778 -3.655,9.244l-0.323,30.372c-0.044,3.576 1.277,7.027 3.655,9.557c2.378,2.514 5.623,3.919 8.985,3.888Z" style="fill:#fff;fill-rule:nonzero;"/></g></svg>