<?xml version="1.0" encoding="utf-8"?>
<!-- Generator: Adobe Illustrator 23.0.5, SVG Export Plug-In . SVG Version: 6.00 Build 0)  -->
<svg version="1.1" id="Capa_1" xmlns="http://www.w3.org/2000/svg" xmlns:xlink="http://www.w3.org/1999/xlink" x="0px" y="0px"
	 viewBox="0 0 5223 653" style="enable-background:new 0 0 5223 653;" xml:space="preserve">
<style type="text/css">
	.st0{enable-background:new    ;}
	.st1{fill:#FFFFFF;}
</style>
<g class="st0">
	<path class="st1" d="M12.4,661.3V2h438v131.9h146v395.6h-146v131.9H12.4z M158.4,529.5h286.2V133.8H158.4V529.5z"/>
</g>
<g class="st0">
	<path class="st1" d="M927.4,661.3V529.5h-146V133.8h146V2h292v131.9h146v395.6h-146v131.9H927.4z M927.4,524.2h292V139.1h-292
		V524.2z"/>
</g>
<g class="st0">
	<path class="st1" d="M2854.3,661.3V529.5h-146V133.8h146V2h292v131.9h146v395.6h-146v131.9H2854.3z M2854.3,524.2h292V139.1h-292
		V524.2z"/>
</g>
<g class="st0">
	<path class="st1" d="M3395.9,661.3V2h438v131.9h146v131.9h-146v263.8h146v131.9h-146V529.5h-146V397.6h-146v263.8H3395.9z
		 M3541.9,265.7h286.2V133.8h-286.2V265.7z"/>
</g>
<g class="st0">
	<path class="st1" d="M4828,653V521.1h-131.9V125.5H4828V-6.4h263.8v131.9H4828v131.9h263.8v131.9h131.9v131.9h-131.9V653H4828z
		 M4828,515.8h263.8V394.5H4828V515.8z"/>
</g>
<g class="st0">
	<path class="st1" d="M1642.1,661.3V529.5h-146V133.8h146v395.6h292v131.9H1642.1z M1934.1,265.7V133.8h-292V2h292v131.9h146v131.9
		H1934.1z M1934.1,529.5V397.6h146v131.9H1934.1z"/>
</g>
<g class="st0">
	<path class="st1" d="M2329.6,661.3V133.8h-146V2h438v131.9h-146v527.5H2329.6z"/>
</g>
</svg>
